:SAMPLES-PER-SECOND 30
:FULLY-SPECIFIED
:DEGREES
211
root  35.06142624 36.47353405 -14.90319169 11.47155762 9.305426598 4.728962421
lowerback  -8.552399635 2.487200022 2.045959949
upperback  -4.407869816 2.76357007 -4.608379841
thorax  0.5468810201 1.118370056 -5.697629929
lowerneck  -15.29920006 -4.417459965 -0.7567530274
upperneck  12.93809986 -7.16353035 6.770810127
head  6.749949932 -3.017009735 1.549029946
lclavicle  0 -4.497500157e-015 -2.743230041e-014
lhumerus  -44.4367981 27.06439972 67.07659912
lradius  -0.1162457541 -6.507048965e-006 26.47489738
lwrist  4.824992743e-007 -3.790274832e-007 -33.53499985
lhand  -4.443185217e-031 -37.37039948 -10.66049957
lfingers  90 7.125020027 -90
lthumb  95.03337464 -25.47951702 101.5706858
rclavicle  0 -4.497500157e-015 -2.743230041e-014
rhumerus  39.76599884 -7.436019897 -47.09939957
rradius  -5.16745672e-007 2.214343908e-008 73.07759857
rwrist  1.380293725e-006 2.528095422e-007 -177.6080017
rhand  -3.541852744e-031 4.460519791 -7.899250031
rfingers  -90 -7.125020027 -90
rthumb  -85.24437172 -8.218890835 -59.80282813
rfemur  -14.77215099 11.01262665 13.74312496
rtibia  -2.941297293 1.115266085 24.34308624
rfoot  -2.731557131 -16.60394096 -43.21811676
rtoes  3.84332491 19.64210449 -101.301854
lfemur  -12.86990547 -22.82256699 -18.98060226
ltibia  2.909762383 1.585259199 15.88429546
lfoot  1.213799238 -28.67849922 31.89078903
ltoes  -8.711290537 -18.07349113 -116.284367
212
root  35.06332458 36.47741783 -14.90418291 11.43661022 9.14659977 4.704063892
lowerback  -8.55945015 2.443589926 1.996329904
upperback  -4.379519939 2.709980011 -4.614699841
thorax  0.5721380115 1.093129992 -5.680500031
lowerneck  -15.34420013 -4.326580048 -0.6232709885
upperneck  12.88879967 -7.068369865 6.771440029
head  6.733779907 -2.96578002 1.537469983
lclavicle  0 -4.497500157e-015 -2.743230041e-014
lhumerus  -44.3995018 26.87059975 67.17620087
lradius  -0.1162497774 -6.507048965e-006 26.58480263
lwrist  4.824992743e-007 -3.790274832e-007 -33.21080017
lhand  -4.443108176e-031 -37.36909866 -10.60400009
lfingers  90 7.125020027 -90
lthumb  95.02018902 -25.42417991 101.56385
rclavicle  0 -4.497500157e-015 -2.743230041e-014
rhumerus  38.58480072 -7.368019104 -47.45629883
rradius  -5.16745672e-007 2.214343908e-008 74.53849792
rwrist  1.380293725e-006 2.528095422e-007 -177.9299927
rhand  -1.770856439e-031 4.431419849 -7.874579906
rfingers  -90 -7.125020027 -90
rthumb  -85.23837099 -8.238225419 -59.82938974
rfemur  -14.7322855 11.07075119 13.72206306
rtibia  -2.903120279 1.092191219 24.27916145
rfoot  -2.703780651 -16.67937088 -43.17231369
rtoes  3.858956542 19.639156 -101.3483602
lfemur  -12.85915375 -22.76610947 -18.98395157
ltibia  2.874099016 1.546178818 15.93271828
lfoot  1.185711622 -28.6372776 31.90716171
ltoes  -8.700289066 -18.07865246 -116.2489103
213
root  35.06671275 36.47951441 -14.90512608 11.42024326 8.982698441 4.673832893
lowerback  -8.546050072 2.403919935 1.948370099
upperback  -4.343379974 2.66230011 -4.636610031
thorax  0.5957360268 1.070970058 -5.680699825
lowerneck  -15.37689972 -4.282519817 -0.5364009738
upperneck  12.80819988 -7.023829937 6.778480053
head  6.709219933 -2.941499949 1.530449867
lclavicle  0 -4.497500157e-015 -2.743230041e-014
lhumerus  -44.31669998 26.67880058 67.2457962
lradius  -0.1162515357 -6.507048965e-006 26.65870094
lwrist  4.824992743e-007 -3.790274832e-007 -32.95669937
lhand  -4.444388229e-031 -37.39070129 -10.55819988
lfingers  90 7.125020027 -90
lthumb  95.02010057 -25.37856799 101.5825289
rclavicle  0 -4.497500157e-015 -2.743230041e-014
rhumerus  37.18680191 -7.271500587 -47.78570175
rradius  -5.16745672e-007 2.214343908e-008 76.25559998
rwrist  1.380293725e-006 2.528095422e-007 -178.0679932
rhand  -1.770892478e-031 4.44644022 -7.972280025
rfingers  -90 -7.125020027 -90
rthumb  -85.28466239 -8.154743993 -59.82188259
rfemur  -14.72992039 11.10644531 13.69711685
rtibia  -2.863824368 1.072525978 24.23714447
rfoot  -2.682553053 -16.76145935 -43.09916306
rtoes  3.867786116 19.63748502 -101.3746323
lfemur  -12.84554195 -22.66340446 -18.97672272
ltibia  2.852922201 1.537948489 15.94084263
lfoot  1.175314665 -28.62766838 31.95558548
ltoes  -8.665162904 -18.09507707 -116.1357675
214
root  35.07007088 36.47916298 -14.9054715 11.37074757 8.80626297 4.627002239
lowerback  -8.553589821 2.362339973 1.867539763
upperback  -4.329569817 2.611690044 -4.635029793
thorax  0.6049259901 1.046399951 -5.637320042
lowerneck  -15.39750004 -4.208499908 -0.4957770109
upperneck  12.78050041 -6.938270092 6.813779831
head  6.700749874 -2.896369934 1.544139981
lclavicle  0 -4.497500157e-015 -2.743230041e-014
lhumerus  -44.26200104 26.44750023 67.3852005
lradius  -0.1162510514 -6.507048965e-006 26.707201
lwrist  4.824992743e-007 -3.790274832e-007 -32.56539917
lhand  -4.445859391e-031 -37.41550064 -10.57359982
lfingers  90 7.125020027 -90
lthumb  95.0351394 -25.39272739 101.6105755
rclavicle  0 -4.497500157e-015 -2.743230041e-014
rhumerus  35.81490326 -7.152451038 -48.19419861
rradius  -5.16745672e-007 2.214343908e-008 77.90419769
rwrist  1.380293725e-006 2.528095422e-007 -178.220993
rhand  -1.770893439e-031 4.446839809 -8.036390305
rfingers  -90 -7.125020027 -90
rthumb  -85.31710172 -8.099384991 -59.82607519
rfemur  -14.68575764 11.16388893 13.69736958
rtibia  -2.818480253 1.066178083 24.16586685
rfoot  -2.630820513 -16.82452011 -43.00337982
rtoes  3.866077314 19.63780872 -101.3695477
lfemur  -12.80297661 -22.57351112 -18.95704842
ltibia  2.822919846 1.518782139 15.96611786
lfoot  1.182067513 -28.61148262 32.06154251
ltoes  -8.663741479 -18.09573995 -116.1311911
